{"title":"Your Highness (2011) DVDRip XviD-MAX","uid":6567109,"size":1268684277,"categoryP":"video","categoryS":"movies","magnet":"?xt=urn:btih:7230410c6b1efab04300af14fbd01df206c7e14c&amp;dn=Your+Highness+%282011%29+DVDRip+XviD-MAX&amp;tr=udp%3A%2F%2Ftracker.openbittorrent.com%3A80&amp;tr=udp%3A%2F%2Fopen.demonii.com%3A1337&amp;tr=udp%3A%2F%2Ftracker.coppersurfer.tk%3A6969&amp;tr=udp%3A%2F%2Fexodus.desync.com%3A6969","seeders":49,"leechers":24,"uploader":"extremezone","files":-1,"time":1311734220,"description":" &lt;a href=&quot;http://leetleech.org/images/20905925920398549926.jpg&quot; rel=&quot;nofollow&quot; target=&quot;_NEW&quot;&gt;http://leetleech.org/images/20905925920398549926.jpg&lt;/a&gt;\n\nScreens:\n &lt;a href=&quot;\nhttp://leetleech.org/images/40662729222947367556.jpg&quot; rel=&quot;nofollow&quot; target=&quot;_NEW&quot;&gt;\nhttp://leetleech.org/images/40662729222947367556.jpg&lt;/a&gt;\n &lt;a href=&quot;\nhttp://leetleech.org/images/92747190858828709220.jpg&quot; rel=&quot;nofollow&quot; target=&quot;_NEW&quot;&gt;\nhttp://leetleech.org/images/92747190858828709220.jpg&lt;/a&gt;\n &lt;a href=&quot;\nhttp://leetleech.org/images/53390554145635339650.jpg&quot; rel=&quot;nofollow&quot; target=&quot;_NEW&quot;&gt;\nhttp://leetleech.org/images/53390554145635339650.jpg&lt;/a&gt;\n &lt;a href=&quot;\nhttp://leetleech.org/images/75497123510164563389.jpg&quot; rel=&quot;nofollow&quot; target=&quot;_NEW&quot;&gt;\nhttp://leetleech.org/images/75497123510164563389.jpg&lt;/a&gt;\n\nAlternative:\n &lt;a href=&quot;\nhttp://www.postimg.com/image/43000/photo-42460.jpg&quot; rel=&quot;nofollow&quot; target=&quot;_NEW&quot;&gt;\nhttp://www.postimg.com/image/43000/photo-42460.jpg&lt;/a&gt; &lt;a href=&quot;\nhttp://www.postimg.com/image/43000/photo-42461.jpg&quot; rel=&quot;nofollow&quot; target=&quot;_NEW&quot;&gt;\nhttp://www.postimg.com/image/43000/photo-42461.jpg&lt;/a&gt; &lt;a href=&quot;\nhttp://www.postimg.com/image/43000/photo-42462.jpg&quot; rel=&quot;nofollow&quot; target=&quot;_NEW&quot;&gt;\nhttp://www.postimg.com/image/43000/photo-42462.jpg&lt;/a&gt; &lt;a href=&quot;\nhttp://www.postimg.com/image/43000/photo-42463.jpg&quot; rel=&quot;nofollow&quot; target=&quot;_NEW&quot;&gt;\nhttp://www.postimg.com/image/43000/photo-42463.jpg&lt;/a&gt;\n\nScreenCaps:\n &lt;a href=&quot;\nhttp://www.postimg.com/43000/photo-42464.jpg&quot; rel=&quot;nofollow&quot; target=&quot;_NEW&quot;&gt;\nhttp://www.postimg.com/43000/photo-42464.jpg&lt;/a&gt;\n\nYour Highness (2011) DVDRip XviD-MAX\nFormat                           : AVI\nFormat/Info                      : Audio Video Interleave\nFormat profile                   : OpenDML\nFile size                        : 1.17 GiB\nDuration                         : 1h 45mn\nOverall bit rate                 : 1 592 Kbps\nWriting application              : VirtualDubMod 1.5.10.2 (build 2542/release)\nWriting library                  : VirtualDubMod build 2542/release\nOriginal source form             : MAX TORRENTZ\nCopyright                        : SIGISMUNT\n\nVideo\nID                               : 0\nFormat                           : MPEG-4 Visual\nFormat profile                   : AdvancedSimple@L5\nFormat settings, BVOP            : Yes\nFormat settings, QPel            : No\nFormat settings, GMC             : No warppoints\nFormat settings, Matrix          : Default (H.263)\nMuxing mode                      : Packed bitstream\nCodec ID                         : XVID\nCodec ID/Hint                    : XviD\nDuration                         : 1h 45mn\nBit rate                         : 1 396 Kbps\nWidth                            : 624 pixels\nHeight                           : 256 pixels\nDisplay aspect ratio             : 2.40:1\nFrame rate                       : 23.976 fps\nResolution                       : 24 bits\nColorimetry                      : 4:2:0\nScan type                        : Progressive\nBits/(Pixel*Frame)               : 0.365\nStream size                      : 1.03 GiB (88%)\nWriting library                  : XviD 57\n\nAudio\nID                               : 1\nFormat                           : MPEG Audio\nFormat version                   : Version 1\nFormat profile                   : Layer 2\nCodec ID                         : 50\nCodec ID/Hint                    : MP1\nDuration                         : 1h 45mn\nBit rate mode                    : Constant\nBit rate                         : 192 Kbps\nChannel(s)                       : 2 channels\nSampling rate                    : 48.0 KHz\nResolution                       : 16 bits\nStream size                      : 145 MiB (12%)\nAlignment                        : Aligned on interleaves\nInterleave, duration             : 559 ms (13.41 video frames)\nInterleave, preload duration     : 216 ms\n\nSource: DVD (perfect a/v/sync quality,sample is included)\nThis torrent is not seedbox supported,please seed it to the MAX \n &lt;a href=&quot;\nhttp://www.imdb.com/title/tt1240982/&quot; rel=&quot;nofollow&quot; target=&quot;_NEW&quot;&gt;\nhttp://www.imdb.com/title/tt1240982/&lt;/a&gt;\n\nYour Highness (2011) DVDRip XviD-MAX Torrent Free Download\n &lt;a href=&quot;\nhttp://thepiratebay.se/user/extremezone/0/7&quot; rel=&quot;nofollow&quot; target=&quot;_NEW&quot;&gt;\nhttp://thepiratebay.se/user/extremezone/0/7&lt;/a&gt;\n\nHow To Get Your Maxspeed (uTorrent)\n\nTorrent Client - Preferences - Bandwidth - Number of connections - Set aprox. 500 for each \nTorrent Client - Preferences - BiTorrent - Protocol Encryption - Forced\nBandwidth Allocation - High (Set download/upload limit - Unlimited)\nStop Other Active Torrents - Start downloading and wait for connections.\nEnjoy and Seed for at least 1:1 ratio. Don't forget to say thanks/leave reviews.\nBefore downloading you should check/google search sample &quot;release name&quot;&quot;sample&quot;.\nGreets to all actual/future p2p/scene QUALITY groups and affiliate websites.\nDon't trust IMDb robot or bad ratings,always watch some trailers first.\nIgnore stupid comments/fake/mislabeled/no-DVDrips/CAM/TS/RAR uploads.\nPlease spread this release/torrent to your friends/forums/etc.\nIf you need translation subs visit some subtitles sites.\nReport if you see online streaming or other spam links.\nRecommended movie player VLC PLAYER.","torrent":{"xt":"urn:btih:7230410c6b1efab04300af14fbd01df206c7e14c","amp;dn":"Your+Highness+%282011%29+DVDRip+XviD-MAX","amp;tr":["udp%3A%2F%2Ftracker.openbittorrent.com%3A80","udp%3A%2F%2Fopen.demonii.com%3A1337","udp%3A%2F%2Ftracker.coppersurfer.tk%3A6969","udp%3A%2F%2Fexodus.desync.com%3A6969"],"infoHash":"7230410c6b1efab04300af14fbd01df206c7e14c","infoHashBuffer":{"type":"Buffer","data":[114,48,65,12,107,30,250,176,67,0,175,20,251,208,29,242,6,199,225,76]},"announce":[],"urlList":[]}}